<svg id="Capa_1" data-name="Capa 1" xmlns="http://www.w3.org/2000/svg" viewBox="0 0 512 512"><defs><style>.cls-1{fill:#fc6e56;}</style></defs><path class="cls-1" d="M497.36,70a19.3,19.3,0,0,0-27.29,0L238.58,300.85l-83.52-90.72a19.3,19.3,0,0,0-28.39,26.14l97.12,105.48A19.28,19.28,0,0,0,237.58,348H238a19.31,19.31,0,0,0,13.62-5.63L497.32,97.29A19.29,19.29,0,0,0,497.36,70Z"/><path class="cls-1" d="M492.7,236.7A19.3,19.3,0,0,0,473.41,256c0,119.88-97.53,217.41-217.41,217.41S38.59,375.88,38.59,256,136.12,38.59,256,38.59A19.3,19.3,0,1,0,256,0C114.84,0,0,114.84,0,256S114.84,512,256,512,512,397.15,512,256A19.3,19.3,0,0,0,492.7,236.7Z"/></svg>